<svg width="62" height="62" viewBox="0 0 62 62" fill="none" xmlns="http://www.w3.org/2000/svg">
<path d="M16.3672 30.7678H16.3792" stroke="#88D629" stroke-width="4.8" stroke-linecap="square"/>
<path d="M21.168 35.5679H21.18" stroke="#88D629" stroke-width="4.8" stroke-linecap="square"/>
<path d="M25.9688 40.3679H25.9808" stroke="#88D629" stroke-width="4.8" stroke-linecap="square"/>
<path d="M30.7695 35.5679H30.7815" stroke="#88D629" stroke-width="4.8" stroke-linecap="square"/>
<path d="M35.5703 30.7678H35.5823" stroke="#88D629" stroke-width="4.8" stroke-linecap="square"/>
<path d="M40.3672 25.9678H40.3792" stroke="#88D629" stroke-width="4.8" stroke-linecap="square"/>
<path d="M45.168 21.1677H45.18" stroke="#88D629" stroke-width="4.8" stroke-linecap="square"/>
<path d="M4.36719 13.1042H4.38903" stroke="#3E403B" stroke-width="8.736" stroke-linecap="square"/>
<path d="M4.36719 21.8401H4.38903" stroke="#3E403B" stroke-width="8.736" stroke-linecap="square"/>
<path d="M4.36719 39.3123H4.38903" stroke="#3E403B" stroke-width="8.736" stroke-linecap="square"/>
<path d="M4.36719 48.0481H4.38903" stroke="#3E403B" stroke-width="8.736" stroke-linecap="square"/>
<path d="M21.8359 4.36792H21.8578" stroke="#3E403B" stroke-width="8.736" stroke-linecap="square"/>
<path d="M21.8359 56.7844H21.8578" stroke="#3E403B" stroke-width="8.736" stroke-linecap="square"/>
<path d="M13.1016 56.7844H13.1234" stroke="#3E403B" stroke-width="8.736" stroke-linecap="square"/>
<path d="M39.3125 56.7844H39.3343" stroke="#3E403B" stroke-width="8.736" stroke-linecap="square"/>
<path d="M13.1016 4.36792H13.1234" stroke="#3E403B" stroke-width="8.736" stroke-linecap="square"/>
<path d="M39.3125 4.36792H39.3343" stroke="#3E403B" stroke-width="8.736" stroke-linecap="square"/>
<path d="M48.0469 4.36792H48.0687" stroke="#3E403B" stroke-width="8.736" stroke-linecap="square"/>
<path d="M48.0469 56.7844H48.0687" stroke="#3E403B" stroke-width="8.736" stroke-linecap="square"/>
<path d="M56.7812 13.1042H56.8031" stroke="#3E403B" stroke-width="8.736" stroke-linecap="square"/>
<path d="M56.7812 21.8401H56.8031" stroke="#3E403B" stroke-width="8.736" stroke-linecap="square"/>
<path d="M56.7812 39.3123H56.8031" stroke="#3E403B" stroke-width="8.736" stroke-linecap="square"/>
<path d="M56.7812 48.0481H56.8031" stroke="#3E403B" stroke-width="8.736" stroke-linecap="square"/>
<path d="M48.0648 48.0481H48.043" stroke="#1C1F21" stroke-opacity="0.25098" stroke-width="8.736" stroke-linecap="square"/>
<path d="M13.1195 48.0481H13.0977" stroke="#1C1F21" stroke-opacity="0.25098" stroke-width="8.736" stroke-linecap="square"/>
<path d="M13.1195 13.1042H13.0977" stroke="#1C1F21" stroke-opacity="0.25098" stroke-width="8.736" stroke-linecap="square"/>
</svg>
