<svg width="46" height="46" viewBox="0 0 46 46" fill="none" xmlns="http://www.w3.org/2000/svg">
<path d="M11 19H11.01" stroke="#3E403B" stroke-width="4" stroke-linecap="square"/>
<path d="M11 23H11.01" stroke="#3E403B" stroke-width="4" stroke-linecap="square"/>
<path d="M11 27H11.01" stroke="#3E403B" stroke-width="4" stroke-linecap="square"/>
<path d="M11 31H11.01" stroke="#3E403B" stroke-width="4" stroke-linecap="square"/>
<path d="M11 35H11.01" stroke="#3E403B" stroke-width="4" stroke-linecap="square"/>
<path d="M15 15H15.01" stroke="#3E403B" stroke-width="4" stroke-linecap="square"/>
<path d="M15 19H15.01" stroke="#3E403B" stroke-opacity="0.25098" stroke-width="4" stroke-linecap="square"/>
<path d="M15 23H15.01" stroke="#3E403B" stroke-width="4" stroke-linecap="square"/>
<path d="M15 35H15.01" stroke="#3E403B" stroke-width="4" stroke-linecap="square"/>
<path d="M19 15H19.01" stroke="#3E403B" stroke-opacity="0.25098" stroke-width="4" stroke-linecap="square"/>
<path d="M19 19H19.01" stroke="#3E403B" stroke-opacity="0.25098" stroke-width="4" stroke-linecap="square"/>
<path d="M19 23H19.01" stroke="#3E403B" stroke-opacity="0.25098" stroke-width="4" stroke-linecap="square"/>
<path d="M19 27H19.01" stroke="#3E403B" stroke-width="4" stroke-linecap="square"/>
<path d="M19 35H19.01" stroke="#3E403B" stroke-width="4" stroke-linecap="square"/>
<path d="M23 19H23.01" stroke="#3E403B" stroke-opacity="0.25098" stroke-width="4" stroke-linecap="square"/>
<path d="M23 27H23.01" stroke="#3E403B" stroke-width="4" stroke-linecap="square"/>
<path d="M23 23H23.01" stroke="#3E403B" stroke-opacity="0.25098" stroke-width="4" stroke-linecap="square"/>
<path d="M23 35H23.01" stroke="#3E403B" stroke-width="4" stroke-linecap="square"/>
<path d="M27 23H27.01" stroke="#3E403B" stroke-opacity="0.25098" stroke-width="4" stroke-linecap="square"/>
<path d="M27 27H27.01" stroke="#3E403B" stroke-width="4" stroke-linecap="square"/>
<path d="M27 35H27.01" stroke="#3E403B" stroke-width="4" stroke-linecap="square"/>
<path d="M31 15H31.01" stroke="#3E403B" stroke-width="4" stroke-linecap="square"/>
<path d="M19 11H19.01" stroke="#3E403B" stroke-width="4" stroke-linecap="square"/>
<path d="M23 11H23.01" stroke="#3E403B" stroke-width="4" stroke-linecap="square"/>
<path d="M27 11H27.01" stroke="#3E403B" stroke-width="4" stroke-linecap="square"/>
<path d="M31 23H31.01" stroke="#3E403B" stroke-width="4" stroke-linecap="square"/>
<path d="M35 35H35.01" stroke="#3E403B" stroke-width="4" stroke-linecap="square"/>
<path d="M31 35H31.01" stroke="#3E403B" stroke-width="4" stroke-linecap="square"/>
<path d="M35 19H35.01" stroke="#3E403B" stroke-width="4" stroke-linecap="square"/>
<path d="M35 23H35.01" stroke="#3E403B" stroke-width="4" stroke-linecap="square"/>
<path d="M35 27H35.01" stroke="#3E403B" stroke-width="4" stroke-linecap="square"/>
<path d="M35 31H35.01" stroke="#3E403B" stroke-width="4" stroke-linecap="square"/>
</svg>
