<svg width="46" height="46" viewBox="0 0 46 46" fill="none" xmlns="http://www.w3.org/2000/svg">
<path d="M15 35.0049V34.9949" stroke="#3E403B" stroke-width="4" stroke-linecap="square"/>
<path d="M19 35.0049V34.9949" stroke="#3E403B" stroke-width="4" stroke-linecap="square"/>
<path d="M23 35.0049V34.9949" stroke="#3E403B" stroke-width="4" stroke-linecap="square"/>
<path d="M27 35.0049V34.9949" stroke="#3E403B" stroke-width="4" stroke-linecap="square"/>
<path d="M31 35.0049V34.9949" stroke="#3E403B" stroke-width="4" stroke-linecap="square"/>
<path d="M11 27.0049V26.9949" stroke="#3E403B" stroke-width="4" stroke-linecap="square"/>
<path d="M19 27.0049V26.9949" stroke="#3E403B" stroke-width="4" stroke-linecap="square"/>
<path d="M23 27.0049V26.9949" stroke="#3E403B" stroke-width="4" stroke-linecap="square"/>
<path d="M27 27.0049V26.9949" stroke="#3E403B" stroke-width="4" stroke-linecap="square"/>
<path d="M35 23.0049V22.9949" stroke="#3E403B" stroke-width="4" stroke-linecap="square"/>
<path d="M35 27.01V27" stroke="#3E403B" stroke-width="4" stroke-linecap="square"/>
<path d="M35 31.01V31" stroke="#3E403B" stroke-width="4" stroke-linecap="square"/>
<path d="M19 19.0049V18.9949" stroke="#3E403B" stroke-width="4" stroke-linecap="square"/>
<path d="M27 19.0049V18.9949" stroke="#3E403B" stroke-width="4" stroke-linecap="square"/>
<path d="M23 19.0049V18.9949" stroke="#3E403B" stroke-width="4" stroke-linecap="square"/>
<path d="M35 19.0049V18.9949" stroke="#3E403B" stroke-width="4" stroke-linecap="square"/>
<path d="M11 31.0049V30.9949" stroke="#3E403B" stroke-width="4" stroke-linecap="square"/>
<path d="M11 23.0049V22.9949" stroke="#3E403B" stroke-width="4" stroke-linecap="square"/>
<path d="M11 19.0049V18.9949" stroke="#3E403B" stroke-width="4" stroke-linecap="square"/>
<path d="M11 15.0049V14.9949" stroke="#3E403B" stroke-width="4" stroke-linecap="square"/>
<path d="M35 15.0049V14.9949" stroke="#3E403B" stroke-width="4" stroke-linecap="square"/>
<path d="M15 11.0049V10.9949" stroke="#3E403B" stroke-width="4" stroke-linecap="square"/>
<path d="M19 11.0049V10.9949" stroke="#3E403B" stroke-width="4" stroke-linecap="square"/>
<path d="M23 11.0049V10.9949" stroke="#3E403B" stroke-width="4" stroke-linecap="square"/>
<path d="M27 11.0049V10.9949" stroke="#3E403B" stroke-width="4" stroke-linecap="square"/>
<path d="M31 11.0049V10.9949" stroke="#3E403B" stroke-width="4" stroke-linecap="square"/>
<path d="M15.01 15H15" stroke="#3E403B" stroke-opacity="0.25098" stroke-width="4" stroke-linecap="square"/>
<path d="M15.0061 27H14.9961" stroke="#3E403B" stroke-opacity="0.25098" stroke-width="4" stroke-linecap="square"/>
<path d="M31.0061 31H30.9961" stroke="#3E403B" stroke-opacity="0.25098" stroke-width="4" stroke-linecap="square"/>
</svg>
