<svg width="46" height="46" viewBox="0 0 46 46" fill="none" xmlns="http://www.w3.org/2000/svg">
<path d="M19 11H19.01" stroke="#3E403B" stroke-width="4" stroke-linecap="square"/>
<path d="M23 11H23.01" stroke="#3E403B" stroke-width="4" stroke-linecap="square"/>
<path d="M27 11H27.01" stroke="#3E403B" stroke-width="4" stroke-linecap="square"/>
<path d="M15 15H15.01" stroke="#3E403B" stroke-width="4" stroke-linecap="square"/>
<path d="M19 15H19.01" stroke="#3E403B" stroke-width="4" stroke-linecap="square"/>
<path d="M23 15H23.01" stroke="#3E403B" stroke-width="4" stroke-linecap="square"/>
<path d="M27 15H27.01" stroke="#3E403B" stroke-width="4" stroke-linecap="square"/>
<path d="M31 15H31.01" stroke="#3E403B" stroke-width="4" stroke-linecap="square"/>
<path d="M15 19H15.01" stroke="#3E403B" stroke-width="4" stroke-linecap="square"/>
<path d="M19 19H19.01" stroke="#3E403B" stroke-width="4" stroke-linecap="square"/>
<path d="M27 19H27.01" stroke="#3E403B" stroke-width="4" stroke-linecap="square"/>
<path d="M31 19H31.01" stroke="#E1E2DF" stroke-width="4" stroke-linecap="square"/>
<path d="M15 23H15.01" stroke="#3E403B" stroke-width="4" stroke-linecap="square"/>
<path d="M19 23H19.01" stroke="#3E403B" stroke-width="4" stroke-linecap="square"/>
<path d="M27 23H27.01" stroke="#3E403B" stroke-width="4" stroke-linecap="square"/>
<path d="M31 23H31.01" stroke="#E1E2DF" stroke-width="4" stroke-linecap="square"/>
<path d="M19 27H19.01" stroke="#3E403B" stroke-width="4" stroke-linecap="square"/>
<path d="M23 27H23.01" stroke="#3E403B" stroke-width="4" stroke-linecap="square"/>
<path d="M27 27H27.01" stroke="#3E403B" stroke-width="4" stroke-linecap="square"/>
<path d="M23 31H23.01" stroke="#3E403B" stroke-width="4" stroke-linecap="square"/>
<path d="M23 35H23.01" stroke="#3E403B" stroke-width="4" stroke-linecap="square"/>
</svg>
