<svg width="200" height="128" viewBox="0 0 200 128" fill="none" xmlns="http://www.w3.org/2000/svg">
<rect x="4" y="4" width="192" height="120" stroke="#3E403B" stroke-width="8"/>
<path d="M69.1016 34.3999V53.5999" stroke="#3E403B" stroke-width="9.6" stroke-linecap="square"/>
<path d="M93.6992 34.3999V53.5999" stroke="#E1E2DF" stroke-width="9.6" stroke-linecap="square"/>
<path d="M107.5 34.3999V53.5999" stroke="#E1E2DF" stroke-width="9.6" stroke-linecap="square"/>
<path d="M132.102 34.3999V53.5999" stroke="#3E403B" stroke-width="9.6" stroke-linecap="square"/>
<path d="M78.6992 24.8H97.8992" stroke="#3E403B" stroke-width="9.6" stroke-linecap="square"/>
<path d="M103.301 24.8H122.501" stroke="#E1E2DF" stroke-width="9.6" stroke-linecap="square"/>
<path d="M78.6992 63.2H97.8992" stroke="#E1E2DF" stroke-width="9.6" stroke-linecap="square"/>
<path d="M103.301 63.2H122.501" stroke="#B9BAB5" stroke-width="9.6" stroke-linecap="square"/>
<path d="M26.875 101V84.125H30.625V87.875H32.5V89.75H34.375V87.875H36.25V84.125H40V101H36.25V89.75H34.375V95.375H32.5V89.75H30.625V101H26.875ZM45.625 93.5H49.375V87.875H45.625V93.5ZM41.875 101V87.875H43.75V86H45.625V84.125H49.375V86H51.25V87.875H53.125V101H49.375V95.375H45.625V101H41.875ZM58.75 101V99.125H56.875V97.25H60.625V99.125H64.375V95.375H62.5V93.5H60.625V91.625H58.75V89.75H56.875V86H58.75V84.125H66.25V86H68.125V87.875H64.375V86H60.625V89.75H62.5V91.625H64.375V93.5H66.25V95.375H68.125V99.125H66.25V101H58.75ZM75.625 101V86H71.875V84.125H83.125V86H79.375V101H75.625ZM86.875 101V84.125H98.125V86H90.625V91.625H96.25V93.5H90.625V99.125H98.125V101H86.875ZM105.625 91.625H109.375V86H105.625V91.625ZM101.875 101V84.125H111.25V86H113.125V91.625H111.25V95.375H113.125V101H109.375V95.375H107.5V93.5H105.625V101H101.875ZM118.75 101V99.125H116.875V86H118.75V84.125H126.25V86H128.125V89.75H124.375V86H120.625V99.125H124.375V95.375H128.125V99.125H126.25V101H118.75ZM135.625 93.5H139.375V87.875H135.625V93.5ZM131.875 101V87.875H133.75V86H135.625V84.125H139.375V86H141.25V87.875H143.125V101H139.375V95.375H135.625V101H131.875ZM150.625 91.625H154.375V86H150.625V91.625ZM146.875 101V84.125H156.25V86H158.125V91.625H156.25V95.375H158.125V101H154.375V95.375H152.5V93.5H150.625V101H146.875ZM165.625 99.125H167.5V97.25H169.375V87.875H167.5V86H165.625V99.125ZM161.875 101V84.125H169.375V86H171.25V87.875H173.125V97.25H171.25V99.125H169.375V101H161.875Z" fill="#3E403B"/>
</svg>
