<svg width="200" height="200" viewBox="0 0 200 200" fill="none" xmlns="http://www.w3.org/2000/svg">
<path d="M47.8242 65.2175H47.8677" stroke="#40413A" stroke-width="17.3913" stroke-linecap="square"/>
<path d="M47.8242 82.6089H47.8677" stroke="#40413A" stroke-width="17.3913" stroke-linecap="square"/>
<path d="M47.8242 100H47.8677" stroke="#40413A" stroke-width="17.3913" stroke-linecap="square"/>
<path d="M47.8242 117.391H47.8677" stroke="#40413A" stroke-width="17.3913" stroke-linecap="square"/>
<path d="M47.8242 134.783H47.8677" stroke="#40413A" stroke-width="17.3913" stroke-linecap="square"/>
<path d="M47.8242 152.174H47.8677" stroke="#40413A" stroke-width="17.3913" stroke-linecap="square"/>
<path d="M65.2188 65.2175H65.2622" stroke="#40413A" stroke-width="17.3913" stroke-linecap="square"/>
<path d="M65.2188 100H65.2622" stroke="#40413A" stroke-width="17.3913" stroke-linecap="square"/>
<path d="M65.2188 117.391H65.2622" stroke="#E1E2DF" stroke-width="17.3913" stroke-linecap="square"/>
<path d="M65.2188 134.783H65.2622" stroke="#E1E2DF" stroke-width="17.3913" stroke-linecap="square"/>
<path d="M65.2188 152.174H65.2622" stroke="#40413A" stroke-width="17.3913" stroke-linecap="square"/>
<path d="M82.6094 65.2175H82.6529" stroke="#40413A" stroke-width="17.3913" stroke-linecap="square"/>
<path d="M82.6094 100H82.6529" stroke="#40413A" stroke-width="17.3913" stroke-linecap="square"/>
<path d="M82.6094 117.391H82.6529" stroke="#E1E2DF" stroke-width="17.3913" stroke-linecap="square"/>
<path d="M82.6094 134.783H82.6529" stroke="#E1E2DF" stroke-width="17.3913" stroke-linecap="square"/>
<path d="M82.6094 152.174H82.6529" stroke="#40413A" stroke-width="17.3913" stroke-linecap="square"/>
<path d="M100 65.2175H100.043" stroke="#40413A" stroke-width="17.3913" stroke-linecap="square"/>
<path d="M100 100H100.043" stroke="#40413A" stroke-width="17.3913" stroke-linecap="square"/>
<path d="M100 134.783H100.043" stroke="#E1E2DF" stroke-width="17.3913" stroke-linecap="square"/>
<path d="M100 152.174H100.043" stroke="#40413A" stroke-width="17.3913" stroke-linecap="square"/>
<path d="M117.391 65.2175H117.434" stroke="#40413A" stroke-width="17.3913" stroke-linecap="square"/>
<path d="M117.391 100H117.434" stroke="#40413A" stroke-width="17.3913" stroke-linecap="square"/>
<path d="M117.391 152.174H117.434" stroke="#40413A" stroke-width="17.3913" stroke-linecap="square"/>
<path d="M134.781 65.2175H134.825" stroke="#40413A" stroke-width="17.3913" stroke-linecap="square"/>
<path d="M65.2188 47.8262H65.2622" stroke="#40413A" stroke-width="17.3913" stroke-linecap="square"/>
<path d="M100 47.8262H100.043" stroke="#40413A" stroke-width="17.3913" stroke-linecap="square"/>
<path d="M134.781 47.8262H134.825" stroke="#40413A" stroke-width="17.3913" stroke-linecap="square"/>
<path d="M134.781 100H134.825" stroke="#40413A" stroke-width="17.3913" stroke-linecap="square"/>
<path d="M152.176 152.174H152.219" stroke="#40413A" stroke-width="17.3913" stroke-linecap="square"/>
<path d="M134.781 152.174H134.825" stroke="#40413A" stroke-width="17.3913" stroke-linecap="square"/>
<path d="M152.176 65.2175H152.219" stroke="#40413A" stroke-width="17.3913" stroke-linecap="square"/>
<path d="M152.176 82.6089H152.219" stroke="#40413A" stroke-width="17.3913" stroke-linecap="square"/>
<path d="M152.176 100H152.219" stroke="#40413A" stroke-width="17.3913" stroke-linecap="square"/>
<path d="M152.176 117.391H152.219" stroke="#40413A" stroke-width="17.3913" stroke-linecap="square"/>
<path d="M152.176 134.783H152.219" stroke="#40413A" stroke-width="17.3913" stroke-linecap="square"/>
</svg>
