<svg width="200" height="200" viewBox="0 0 200 200" fill="none" xmlns="http://www.w3.org/2000/svg">
<path d="M47.8281 82.6087H47.8716" stroke="#40413A" stroke-width="17.3913" stroke-linecap="square"/>
<path d="M47.8281 99.9999H47.8716" stroke="#40413A" stroke-width="17.3913" stroke-linecap="square"/>
<path d="M47.8281 117.391H47.8716" stroke="#40413A" stroke-width="17.3913" stroke-linecap="square"/>
<path d="M65.2188 65.2173H65.2621" stroke="#40413A" stroke-width="17.3913" stroke-linecap="square"/>
<path d="M65.2188 82.6087H65.2621" stroke="#E1E2DF" stroke-width="17.3913" stroke-linecap="square"/>
<path d="M65.2188 99.9999H65.2621" stroke="#E1E2DF" stroke-width="17.3913" stroke-linecap="square"/>
<path d="M65.2188 117.391H65.2621" stroke="#E1E2DF" stroke-width="17.3913" stroke-linecap="square"/>
<path d="M65.2188 134.783H65.2621" stroke="#40413A" stroke-width="17.3913" stroke-linecap="square"/>
<path d="M82.6094 99.9999H82.6529" stroke="#E1E2DF" stroke-width="17.3913" stroke-linecap="square"/>
<path d="M82.6094 117.391H82.6529" stroke="#E1E2DF" stroke-width="17.3913" stroke-linecap="square"/>
<path d="M82.6094 134.783H82.6529" stroke="#E1E2DF" stroke-width="17.3913" stroke-linecap="square"/>
<path d="M82.6094 152.174H82.6529" stroke="#40413A" stroke-width="17.3913" stroke-linecap="square"/>
<path d="M100 82.6087H100.043" stroke="#40413A" stroke-width="17.3913" stroke-linecap="square"/>
<path d="M100 99.9999H100.043" stroke="#40413A" stroke-width="17.3913" stroke-linecap="square"/>
<path d="M100 117.391H100.043" stroke="#E1E2DF" stroke-width="17.3913" stroke-linecap="square"/>
<path d="M100 134.783H100.043" stroke="#E1E2DF" stroke-width="17.3913" stroke-linecap="square"/>
<path d="M100 152.174H100.043" stroke="#40413A" stroke-width="17.3913" stroke-linecap="square"/>
<path d="M117.391 117.391H117.434" stroke="#40413A" stroke-width="17.3913" stroke-linecap="square"/>
<path d="M117.391 134.783H117.434" stroke="#E1E2DF" stroke-width="17.3913" stroke-linecap="square"/>
<path d="M117.391 152.174H117.434" stroke="#40413A" stroke-width="17.3913" stroke-linecap="square"/>
<path d="M134.781 65.2173H134.825" stroke="#40413A" stroke-width="17.3913" stroke-linecap="square"/>
<path d="M82.6094 47.826H82.6529" stroke="#40413A" stroke-width="17.3913" stroke-linecap="square"/>
<path d="M100 47.826H100.043" stroke="#40413A" stroke-width="17.3913" stroke-linecap="square"/>
<path d="M117.391 47.826H117.434" stroke="#40413A" stroke-width="17.3913" stroke-linecap="square"/>
<path d="M134.781 134.783H134.825" stroke="#E1E2DF" stroke-width="17.3913" stroke-linecap="square"/>
<path d="M152.172 82.6087H152.215" stroke="#40413A" stroke-width="17.3913" stroke-linecap="square"/>
<path d="M152.172 99.9999H152.215" stroke="#40413A" stroke-width="17.3913" stroke-linecap="square"/>
<path d="M152.172 117.391H152.215" stroke="#40413A" stroke-width="17.3913" stroke-linecap="square"/>
</svg>
