<svg width="150" height="150" viewBox="0 0 150 150" fill="none" xmlns="http://www.w3.org/2000/svg">
<mask id="mask0_377_266" style="mask-type:luminance" maskUnits="userSpaceOnUse" x="26" y="27" width="97" height="97">
<path d="M122.992 27.0039H26.9922V123.004H122.992V27.0039Z" fill="white"/>
</mask>
<g mask="url(#mask0_377_266)">
<path d="M55.5 27.0039H39V30.0039H55.5V27.0039Z" fill="#3E403B"/>
<path d="M57.75 30.0037H41.25V33.0037H57.75V30.0037Z" fill="#3E403B"/>
<path d="M60 33.0034H43.5V36.0034H60V33.0034Z" fill="#3E403B"/>
<path d="M62.2422 36.0032H45.7422V39.0032H62.2422V36.0032Z" fill="#3E403B"/>
<path d="M64.5078 39.0027H48.0078V42.0027H64.5078V39.0027Z" fill="#3E403B"/>
<path d="M66.75 42.0024H50.25V45.0024H66.75V42.0024Z" fill="#3E403B"/>
<path d="M69 45.0022H52.5V48.0022H69V45.0022Z" fill="#3E403B"/>
<path d="M71.25 48.002H54.75V51.002H71.25V48.002Z" fill="#3E403B"/>
<path d="M73.5 51.0017H57V54.0017H73.5V51.0017Z" fill="#3E403B"/>
<path d="M75.75 54.0046H59.25V57.0046H75.75V54.0046Z" fill="#3E403B"/>
<path d="M78 57.0044H61.5V60.0044H78V57.0044Z" fill="#3E403B"/>
<path d="M80.2578 60.0042H63.7578V63.0042H80.2578V60.0042Z" fill="#3E403B"/>
<path d="M82.5 63.0039H66V66.0039H82.5V63.0039Z" fill="#3E403B"/>
<path d="M84.7422 66.0037H68.2422V69.0037H84.7422V66.0037Z" fill="#3E403B"/>
<path d="M87 69.0034H70.5V72.0034H87V69.0034Z" fill="#3E403B"/>
<path d="M89.2422 72.0032H72.7422V75.0032H89.2422V72.0032Z" fill="#3E403B"/>
<path d="M91.5 75.0029H75V78.0029H91.5V75.0029Z" fill="#3E403B"/>
<path d="M93.7578 78.0027H77.2578V81.0027H93.7578V78.0027Z" fill="#3E403B"/>
<path d="M96 81.0024H79.5V84.0024H96V81.0024Z" fill="#3E403B"/>
<path d="M98.2578 84.0022H81.7578V87.0022H98.2578V84.0022Z" fill="#3E403B"/>
<path d="M100.5 87.002H84V90.002H100.5V87.002Z" fill="#3E403B"/>
<path d="M102.742 90.0017H86.2422V93.0017H102.742V90.0017Z" fill="#3E403B"/>
<path d="M105 93.0015H88.5V96.0015H105V93.0015Z" fill="#3E403B"/>
<path d="M107.25 96.0012H90.75V99.0012H107.25V96.0012Z" fill="#3E403B"/>
<path d="M109.5 99.0042H93V102.004H109.5V99.0042Z" fill="#3E403B"/>
<path d="M111.75 102.004H95.25V105.004H111.75V102.004Z" fill="#3E403B"/>
<path d="M114 105.004H97.5V108.004H114V105.004Z" fill="#3E403B"/>
<path d="M116.25 108.003H99.75V111.003H116.25V108.003Z" fill="#3E403B"/>
<path d="M118.492 111.003H101.992V114.003H118.492V111.003Z" fill="#3E403B"/>
<path d="M120.758 114.003H104.258V117.003H120.758V114.003Z" fill="#3E403B"/>
<path d="M123 117.002H106.5V120.002H123V117.002Z" fill="#3E403B"/>
<path d="M125.25 120.002H108.75V123.002H125.25V120.002Z" fill="#3E403B"/>
<path d="M36 120.002H28.5V123.002H36V120.002Z" fill="#3E403B"/>
<path d="M38.2422 117.002H30.7422V120.002H38.2422V117.002Z" fill="#3E403B"/>
<path d="M40.5 114.003H33V117.003H40.5V114.003Z" fill="#3E403B"/>
<path d="M42.7422 111.003H35.2422V114.003H42.7422V111.003Z" fill="#3E403B"/>
<path d="M45 108.003H37.5V111.003H45V108.003Z" fill="#3E403B"/>
<path d="M47.2578 105.004H39.7578V108.004H47.2578V105.004Z" fill="#3E403B"/>
<path d="M49.5 102.004H42V105.004H49.5V102.004Z" fill="#3E403B"/>
<path d="M51.7578 99.0042H44.2578V102.004H51.7578V99.0042Z" fill="#3E403B"/>
<path d="M54 96.0012H46.5V99.0012H54V96.0012Z" fill="#3E403B"/>
<path d="M56.2422 93.0015H48.7422V96.0015H56.2422V93.0015Z" fill="#3E403B"/>
<path d="M58.5 90.0017H51V93.0017H58.5V90.0017Z" fill="#3E403B"/>
<path d="M60.75 87.002H53.25V90.002H60.75V87.002Z" fill="#3E403B"/>
<path d="M63 84.0022H55.5V87.0022H63V84.0022Z" fill="#3E403B"/>
<path d="M98.25 60.0042H90.75V63.0042H98.25V60.0042Z" fill="#3E403B"/>
<path d="M100.5 57.0044H93V60.0044H100.5V57.0044Z" fill="#3E403B"/>
<path d="M102.75 54.0046H95.25V57.0046H102.75V54.0046Z" fill="#3E403B"/>
<path d="M105 51.0017H97.5V54.0017H105V51.0017Z" fill="#3E403B"/>
<path d="M107.25 48.002H99.75V51.002H107.25V48.002Z" fill="#3E403B"/>
<path d="M109.492 45.0022H101.992V48.0022H109.492V45.0022Z" fill="#3E403B"/>
<path d="M111.758 42.0024H104.258V45.0024H111.758V42.0024Z" fill="#3E403B"/>
<path d="M114 39.0027H106.5V42.0027H114V39.0027Z" fill="#3E403B"/>
<path d="M116.25 36.0032H108.75V39.0032H116.25V36.0032Z" fill="#3E403B"/>
<path d="M118.5 33.0034H111V36.0034H118.5V33.0034Z" fill="#3E403B"/>
<path d="M120.75 30.0037H113.25V33.0037H120.75V30.0037Z" fill="#3E403B"/>
<path d="M123 27.0039H115.5V30.0039H123V27.0039Z" fill="#3E403B"/>
</g>
</svg>
