<svg width="150" height="150" viewBox="0 0 150 150" fill="none" xmlns="http://www.w3.org/2000/svg">
<path d="M59.9922 14.9993H44.9922V29.9993H59.9922V14.9993Z" fill="#3E403B"/>
<path d="M75 14.9993H60V29.9993H75V14.9993Z" fill="#3E403B"/>
<path d="M90 14.9993H75V29.9993H90V14.9993Z" fill="#3E403B"/>
<path d="M105 14.9993H90V29.9993H105V14.9993Z" fill="#3E403B"/>
<path d="M44.9922 29.998H29.9922V44.998H44.9922V29.998Z" fill="#3E403B"/>
<path d="M59.9922 29.998H44.9922V44.998H59.9922V29.998Z" fill="#3E403B"/>
<path d="M75 29.998H60V44.998H75V29.998Z" fill="#3E403B"/>
<path d="M90 29.998H75V44.998H90V29.998Z" fill="#3E403B"/>
<path d="M105 29.998H90V44.998H105V29.998Z" fill="#3E403B"/>
<path d="M119.992 29.998H104.992V44.998H119.992V29.998Z" fill="#3E403B"/>
<path d="M30 44.9998H15V59.9998H30V44.9998Z" fill="#3E403B"/>
<path d="M44.9922 44.9998H29.9922V59.9998H44.9922V44.9998Z" fill="#3E403B"/>
<path d="M119.992 44.9998H104.992V59.9998H119.992V44.9998Z" fill="#3E403B"/>
<path d="M134.992 44.9998H119.992V59.9998H134.992V44.9998Z" fill="#3E403B"/>
<path d="M30 59.9985H15V74.9985H30V59.9985Z" fill="#3E403B"/>
<path d="M44.9922 59.9985H29.9922V74.9985H44.9922V59.9985Z" fill="#3E403B"/>
<path d="M134.992 59.9985H119.992V74.9985H134.992V59.9985Z" fill="#3E403B"/>
<path d="M30 75.0005H15V90.0005H30V75.0005Z" fill="#3E403B"/>
<path d="M119.992 75.0005H104.992V90.0005H119.992V75.0005Z" fill="#3E403B"/>
<path d="M134.992 75.0005H119.992V90.0005H134.992V75.0005Z" fill="#3E403B"/>
<path d="M30 89.9993H15V104.999H30V89.9993Z" fill="#3E403B"/>
<path d="M44.9922 89.9993H29.9922V104.999H44.9922V89.9993Z" fill="#3E403B"/>
<path d="M119.992 89.9993H104.992V104.999H119.992V89.9993Z" fill="#3E403B"/>
<path d="M134.992 89.9993H119.992V104.999H134.992V89.9993Z" fill="#3E403B"/>
<path d="M44.9922 104.998H29.9922V119.998H44.9922V104.998Z" fill="#3E403B"/>
<path d="M90 104.998H75V119.998H90V104.998Z" fill="#3E403B"/>
<path d="M105 104.998H90V119.998H105V104.998Z" fill="#3E403B"/>
<path d="M119.992 104.998H104.992V119.998H119.992V104.998Z" fill="#3E403B"/>
<path d="M59.9922 120H44.9922V135H59.9922V120Z" fill="#3E403B"/>
<path d="M75 120H60V135H75V120Z" fill="#3E403B"/>
<path d="M90 120H75V135H90V120Z" fill="#3E403B"/>
<path d="M105 120H90V135H105V120Z" fill="#3E403B"/>
<path d="M44.9922 120H29.9922V135H44.9922V120Z" fill="#3E403B"/>
<path d="M30 134.999H15V149.999H30V134.999Z" fill="#3E403B"/>
<path d="M44.9922 134.999H29.9922V149.999H44.9922V134.999Z" fill="#3E403B"/>
<path d="M93.1133 85.2375L93.1017 85.2251" stroke="#3E403B" stroke-width="6.78261" stroke-linecap="square"/>
<path d="M88.1523 89.8613L88.1408 89.8489" stroke="#3E403B" stroke-width="6.78261" stroke-linecap="square"/>
<path d="M83.5352 84.897L83.5236 84.8846" stroke="#F5F5F4" stroke-width="6.78261" stroke-linecap="square"/>
<path d="M78.5664 89.5176L78.5549 89.5052" stroke="#3E403B" stroke-width="6.78261" stroke-linecap="square"/>
<path d="M88.4922 80.2732L88.4806 80.2608" stroke="#3E403B" stroke-width="6.78261" stroke-linecap="square"/>
<path d="M73.9492 84.553L73.9377 84.5406" stroke="#3E403B" stroke-width="6.78261" stroke-linecap="square"/>
<path d="M78.9062 79.9292L78.8947 79.9168" stroke="#3E403B" stroke-width="6.78261" stroke-linecap="square"/>
<path d="M69.3242 79.5916L69.3127 79.5791" stroke="#3E403B" stroke-width="6.78261" stroke-linecap="square"/>
<path d="M69.6641 70.0032L69.6525 69.9908" stroke="#3E403B" stroke-width="6.78261" stroke-linecap="square"/>
<path d="M64.6953 74.6238L64.6838 74.6114" stroke="#3E403B" stroke-width="6.78261" stroke-linecap="square"/>
<path d="M70 60.418L69.9884 60.4056" stroke="#3E403B" stroke-width="6.78261" stroke-linecap="square"/>
<path d="M65.0469 65.0388L65.0353 65.0264" stroke="#F5F5F4" stroke-width="6.78261" stroke-linecap="square"/>
<path d="M60.0742 69.6594L60.0627 69.647" stroke="#3E403B" stroke-width="6.78261" stroke-linecap="square"/>
<path d="M65.3828 55.4504L65.3713 55.438" stroke="#3E403B" stroke-width="6.78261" stroke-linecap="square"/>
<path d="M60.4258 60.0742L60.4142 60.0618" stroke="#3E403B" stroke-width="6.78261" stroke-linecap="square"/>
</svg>
